# xmcd CD database file
#
# Track frame offsets:
#	150
#	12252
#	21900
#	35530
#	45365
#	57381
#	67471
#	78124
#	88576
#	100109
#	111019
#	122530
#	134361
#	142795
#	150344
#	156979
#
# Disc length: 2208 seconds
#
# Revision: 3
# Processed by: cddbd v1.5.2PL0 Copyright (c) Steve Scherf et al.
# Submitted via: CDex 1.51
#
DISCID=c6089e10
DTITLE=Stringbean (David Akeman) - Barn Yard Banjo Pickin' (1 of 2)
DYEAR=2006
DGENRE=Country
TTITLE0=Stringbean and His Banjo
TTITLE1=Herding Cattle
TTITLE2=Wake Up Little Betty
TTITLE3=Pretty Polly
TTITLE4=Little Birdie
TTITLE5=Don't Bob Your Hair Girls
TTITLE6=Forgetting to Forget You
TTITLE7=Barn Yard Banjo Pickin'
TTITLE8=Opry Time in Tennessee
TTITLE9=Stringbean's A-Fishin'
TTITLE10=Here Rattler Here
TTITLE11=Train Special 500
TTITLE12=String's Mountain Dew
TTITLE13=Run Rabbit Run
TTITLE14=Goodbye Sweet Thing
TTITLE15=Pluckin' The Bird
EXTD=YEAR: 2006
EXTT0=
EXTT1=
EXTT2=
EXTT3=
EXTT4=
EXTT5=
EXTT6=
EXTT7=
EXTT8=
EXTT9=
EXTT10=
EXTT11=
EXTT12=
EXTT13=
EXTT14=
EXTT15=
PLAYORDER=
